<svg width="1200" height="720" viewBox="0 0 1200 720" fill="none" xmlns="http://www.w3.org/2000/svg">
  <rect width="1200" height="720" rx="40" fill="#121826"/>
  <rect x="60" y="60" width="1080" height="600" rx="32" fill="#F4EEDF"/>
  <rect x="474" y="102" width="252" height="44" rx="22" fill="#090C12"/>
  <rect x="338" y="172" width="524" height="96" rx="48" fill="#0E1721"/>
  <rect x="364" y="196" width="184" height="18" rx="9" fill="#FFF7ED"/>
  <rect x="364" y="226" width="132" height="12" rx="6" fill="#FED7AA"/>
  <rect x="126" y="330" width="948" height="264" rx="36" fill="#FFF9F1"/>
  <rect x="168" y="374" width="240" height="168" rx="26" fill="#F1E6D5"/>
  <rect x="480" y="374" width="240" height="168" rx="26" fill="#F1E6D5"/>
  <rect x="792" y="374" width="240" height="168" rx="26" fill="#F1E6D5"/>
  <rect x="196" y="408" width="144" height="18" rx="9" fill="#0F172A"/>
  <rect x="196" y="438" width="104" height="12" rx="6" fill="#1F8A70"/>
  <rect x="508" y="408" width="160" height="18" rx="9" fill="#0F172A"/>
  <rect x="508" y="438" width="118" height="12" rx="6" fill="#F97316"/>
  <rect x="820" y="408" width="154" height="18" rx="9" fill="#0F172A"/>
  <rect x="820" y="438" width="126" height="12" rx="6" fill="#2563EB"/>
</svg>
