<svg width="1280" height="720" viewBox="0 0 1280 720" fill="none" xmlns="http://www.w3.org/2000/svg">
  <rect width="1280" height="720" rx="36" fill="#FFF8F0"/>
  <rect x="44" y="44" width="1192" height="632" rx="32" fill="url(#bg)"/>
  <rect x="94" y="98" width="340" height="524" rx="30" fill="#FFFDF9" stroke="#F4D8BC" stroke-width="4"/>
  <rect x="482" y="98" width="704" height="254" rx="34" fill="url(#hero)"/>
  <rect x="482" y="384" width="336" height="238" rx="28" fill="#FFF8EF"/>
  <rect x="850" y="384" width="336" height="238" rx="28" fill="#FFF8EF"/>
  <rect x="126" y="138" width="64" height="64" rx="20" fill="#F46F52"/>
  <text x="212" y="178" fill="#24314A" font-family="Arial, sans-serif" font-size="34" font-weight="700">Stamper</text>
  <text x="126" y="242" fill="#24314A" font-family="Arial, sans-serif" font-size="54" font-weight="800">Pulunu oluştur.</text>
  <text x="126" y="286" fill="#536178" font-family="Arial, sans-serif" font-size="24">Fotoğraflarını kişisel dijital pullara dönüştür.</text>
  <rect x="126" y="334" width="276" height="78" rx="24" fill="#24314A"/>
  <text x="178" y="383" fill="#FFFDF9" font-family="Arial, sans-serif" font-size="28" font-weight="700">Kamerayı Aç</text>
  <rect x="126" y="438" width="276" height="78" rx="24" fill="#FFF0E0"/>
  <text x="160" y="487" fill="#24314A" font-family="Arial, sans-serif" font-size="28" font-weight="700">Galeriden Seç</text>
  <rect x="562" y="150" width="150" height="170" rx="30" fill="#FFF8EF" stroke="#F6B77D" stroke-width="4"/>
  <rect x="736" y="130" width="184" height="206" rx="34" fill="#FFFDF9" stroke="#FFFFFF" stroke-width="8"/>
  <rect x="948" y="166" width="122" height="140" rx="26" fill="#FFF8EF" stroke="#A5D6B4" stroke-width="4"/>
  <text x="546" y="470" fill="#24314A" font-family="Arial, sans-serif" font-size="30" font-weight="700">Koleksiyonlar</text>
  <text x="914" y="470" fill="#24314A" font-family="Arial, sans-serif" font-size="30" font-weight="700">Yedekleme</text>
  <text x="520" y="520" fill="#5B6880" font-family="Arial, sans-serif" font-size="22">Albümler, notlar ve favoriler</text>
  <text x="888" y="520" fill="#5B6880" font-family="Arial, sans-serif" font-size="22">Yerel dışa aktarma ve geri yükleme</text>
  <defs>
    <linearGradient id="bg" x1="80" y1="64" x2="1208" y2="660" gradientUnits="userSpaceOnUse">
      <stop stop-color="#FFFDF8"/>
      <stop offset="0.5" stop-color="#FFF3E4"/>
      <stop offset="1" stop-color="#FFF8F0"/>
    </linearGradient>
    <linearGradient id="hero" x1="482" y1="98" x2="1186" y2="352" gradientUnits="userSpaceOnUse">
      <stop stop-color="#FFD8C5"/>
      <stop offset="0.5" stop-color="#FBC987"/>
      <stop offset="1" stop-color="#AEE2DC"/>
    </linearGradient>
  </defs>
</svg>
